PathFileType	4	(X/Y/Z)	D:\TRACE\spot_10-12-23\spot_arm_body_motion_1_5-platform.trc
DataRate	CameraRate	NumFrames	NumMarkers	Units	OrigDataRate	OrigDataStartFrame	OrigNumFrames
100.00	100.00	      73	5	mm	100.00	4376	      7000
Frame#	Time	Left_Front			Right_Front			Left_Aft			Right_Aft			Post			
		X1	Y1	Z1	X2	Y2	Z2	X3	Y3	Z3	X4	Y4	Z4	X5	Y5	Z5	

4376	43.750	-768.52661	15.27106	-650.73840	798.94952	13.14207	-626.21082	-700.92963	9.75308	487.92792	706.97839	7.26796	589.80426	37.11489	739.75189	-971.51605	
4377	43.760	-768.83661	15.37445	-650.83850	797.97668	13.56195	-626.10004	-701.80151	9.57026	487.95361	706.14728	7.02270	589.81610	42.46866	738.67896	-976.10114	
4378	43.770	-769.92700	15.73970	-650.62347	797.08331	13.85494	-625.97229	-702.78156	9.22608	488.01471	705.17786	6.63238	589.99585	17.59903	746.07159	-955.91205	
4379	43.780	-771.33020	16.31686	-650.44696	796.16571	14.09725	-625.96698	-703.84772	8.90631	488.21695	704.10364	6.54478	590.88190	16.68193	746.58551	-955.44855	
4380	43.790	-772.17401	16.60845	-650.25342	795.17737	14.44424	-625.82581	-704.70410	8.77639	488.28699	703.24377	6.28546	591.03918	15.77296	747.13623	-955.03650	
4381	43.800	-772.89380	17.15157	-650.17334	794.39929	15.14373	-625.73694	-705.45673	8.48566	488.45505	702.54095	6.11827	591.03119	14.90907	747.65985	-954.97882	
4382	43.810	-773.68915	17.54586	-650.07410	793.49823	15.61636	-625.61133	-706.36755	8.27239	488.48645	701.52710	5.77261	591.36304	13.80039	748.37872	-954.89429	
4383	43.820	-774.82220	18.11316	-650.08545	792.55505	16.03122	-625.52594	-707.27484	7.96426	488.62936	700.70020	5.37971	591.50873	12.89594	748.97394	-954.23804	
4384	43.830	-775.81421	18.28269	-649.89331	791.36707	16.21436	-625.55707	-708.30756	7.57028	488.72452	699.47382	4.91943	591.90338	11.82791	749.51202	-953.98303	
4385	43.840	-776.62280	18.65912	-649.81024	790.47717	16.58998	-625.39349	-709.27869	7.19418	488.83517	698.57123	4.15078	590.13776	10.92566	750.12372	-953.29785	
4386	43.850	-777.59796	19.32927	-649.79419	789.47223	17.01192	-625.29468	-710.29272	6.82362	488.98843	697.76581	3.96793	590.82727	9.84249	751.16071	-952.90369	
4387	43.860	-778.66388	19.95219	-649.78101	788.64716	17.39880	-625.23663	-711.06995	6.74814	489.04330	696.88062	3.64921	590.89398	9.00898	751.52844	-951.91901	
4388	43.870	-779.53229	20.21891	-649.62439	787.86530	18.12254	-625.00653	-712.15784	6.41871	489.02264	695.86975	3.25835	590.84955	8.33542	752.07172	-951.12311	
4389	43.880	-780.48767	20.39849	-649.38745	786.72302	18.24801	-624.94427	-712.90155	6.19912	489.22510	694.93372	2.94200	590.94507	7.24490	752.67810	-950.28619	
4390	43.890	-781.48346	20.74743	-649.39215	785.70618	18.60539	-624.96283	-714.03571	5.98873	489.24759	693.98492	2.57385	591.01544	6.14268	753.22687	-949.48840	
4391	43.900	-782.45789	21.26451	-649.44238	784.73828	19.00612	-624.82898	-714.91754	5.69530	489.32718	692.97949	2.17414	591.10950	5.19420	753.79633	-948.74945	
4392	43.910	-783.28436	21.64055	-649.18518	783.80322	19.38423	-624.77399	-715.91943	5.23076	489.42130	691.90900	1.81541	591.21906	4.34702	754.47778	-948.02142	
4393	43.920	-784.23975	21.99381	-649.02356	782.92761	20.15775	-624.62982	-716.90936	5.12057	489.41394	691.01929	1.61055	591.28534	3.37468	755.20551	-947.35840	
4394	43.930	-785.33441	22.36821	-649.01392	782.01331	20.50344	-624.54675	-717.86884	4.83916	489.47675	690.24786	1.25318	591.26178	2.40070	755.69519	-947.00433	
4395	43.940	-786.34003	22.95832	-648.84875	781.08429	20.90003	-624.29858	-718.86005	4.47691	489.54672	689.07080	0.78959	591.41205	1.35090	756.35693	-946.65436	
4396	43.950	-787.24933	23.47127	-648.80304	780.07452	21.31128	-624.29675	-719.84723	4.05322	489.65475	688.08801	0.46025	591.58057	0.46368	757.03107	-946.29626	
4397	43.960	-788.31360	23.90302	-648.50275	779.08325	21.82812	-624.20856	-720.68927	3.74482	489.90265	687.17517	0.13020	591.61591	-0.46335	757.63300	-945.96118	
4398	43.970	-789.27350	24.61961	-648.72760	778.20135	22.24462	-624.07172	-721.91467	3.58080	490.02716	686.25806	-0.20180	591.74396	-1.45492	758.27075	-945.65009	
4399	43.980	-790.27014	24.87191	-648.54034	777.16278	22.62324	-624.04364	-722.66370	3.29287	490.14276	685.20343	-0.57540	591.88538	-2.46277	758.96265	-945.27789	
4400	43.990	-791.10785	25.09974	-648.26965	776.23987	23.03682	-623.98657	-723.80469	2.93525	490.11066	684.35217	-0.93175	591.91772	-3.44149	759.41235	-944.67047	
4401	44.000	-792.03583	25.47764	-648.26440	775.15430	23.44263	-623.85596	-724.72955	2.61268	490.17801	683.37421	-1.27797	592.02264	-4.34984	759.87769	-944.20026	
4402	44.010	-793.15448	25.89797	-648.30414	774.25732	23.77816	-623.74585	-725.72742	2.34519	490.17380	682.34100	-1.62525	592.10925	-5.56175	760.58966	-943.41388	
4403	44.020	-794.12250	26.42282	-648.04266	773.36102	24.21964	-623.64142	-726.75665	2.15458	490.35333	681.40747	-1.98787	591.69263	-6.54996	761.20972	-942.64301	
4404	44.030	-794.80627	26.65594	-647.93231	772.37720	24.72073	-623.51239	-727.66602	1.87609	490.41779	680.49982	-2.24765	592.28058	-7.34233	761.81683	-942.01758	
4405	44.040	-795.95923	27.24231	-647.86658	771.50745	25.09731	-623.44904	-728.58844	1.63712	490.52106	679.48297	-2.68200	592.39417	-8.22756	762.51257	-941.44617	
4406	44.050	-796.90393	27.72333	-647.88879	770.37067	25.42108	-623.32501	-729.56226	1.30213	490.64063	678.44855	-3.05200	592.37030	-9.33696	763.04059	-940.71033	
4407	44.060	-797.77362	28.00943	-647.77246	769.44086	25.74958	-623.24402	-730.31561	1.10915	490.77118	677.67157	-3.21330	592.42798	-10.14236	763.56244	-940.16302	
4408	44.070	-798.74847	28.49413	-647.57898	768.56360	26.15193	-623.14001	-731.50330	0.79249	490.87399	676.50977	-3.59402	592.52600	-11.32363	764.20435	-939.48627	
4409	44.080	-800.00775	29.23887	-647.55475	767.50903	26.70013	-623.10577	-732.47913	0.57061	490.94016	675.57074	-3.93629	592.58270	-11.97968	764.94940	-938.97083	
4410	44.090	-800.81787	29.46718	-647.48419	766.63495	27.09028	-622.94031	-733.37714	0.20312	490.97495	674.71643	-4.26390	592.65271	-12.97235	765.46826	-938.43427	
4411	44.100	-801.84619	29.79556	-647.25671	765.70667	27.45311	-622.78320	-734.30664	-0.09719	491.02518	673.83917	-4.61368	592.76740	-14.00730	765.96851	-937.94226	
4412	44.110	-802.69250	30.08232	-647.10376	764.75726	27.75639	-622.69769	-735.17456	-0.49053	491.16562	672.76538	-5.12339	592.80774	-14.73720	766.67725	-937.53680	
4413	44.120	-803.81586	30.55810	-647.12976	763.77118	28.22206	-622.66840	-736.09558	-0.66904	491.37900	671.90540	-5.46357	592.87024	-15.85163	767.32568	-936.98944	
4414	44.130	-804.65106	31.03848	-647.02032	762.92706	28.73499	-622.55682	-737.12573	-0.96977	491.42960	670.97467	-5.76146	593.05438	-16.57779	767.88556	-936.70599	
4415	44.140	-805.49756	31.52190	-646.79907	762.09332	29.07081	-622.43726	-737.77991	-1.24959	491.65201	670.15448	-6.12489	593.01843	-17.72287	768.52069	-936.16272	
4416	44.150	-806.49896	32.01929	-646.65790	761.00415	29.43329	-622.31818	-738.84473	-1.53870	491.73547	669.16931	-6.37927	593.10583	-18.72843	769.15369	-935.58173	
4417	44.160	-807.18060	32.22672	-646.84589	760.07092	29.77648	-622.24603	-739.88239	-1.88385	491.91666	668.29254	-6.61382	593.21429	-19.54404	769.69629	-935.01556	
4418	44.170	-808.28003	32.71838	-646.65753	759.29883	30.10071	-622.07019	-740.67474	-2.07930	491.64819	667.29663	-7.00025	593.38409	-20.39272	770.07660	-934.39612	
4419	44.180	-809.09930	33.13348	-646.60431	758.32550	30.50504	-621.97400	-741.61804	-2.39482	491.70740	666.46069	-7.29746	593.43817	-21.47164	770.77820	-933.65625	
4420	44.190	-809.89929	33.52052	-646.52917	757.34192	30.84265	-621.94501	-742.45520	-2.63033	491.77536	665.58893	-7.60772	593.52930	-22.26391	771.22296	-933.16473	
4421	44.200	-810.88208	34.07895	-646.36108	756.61957	31.10429	-621.87579	-743.17719	-2.77917	491.91333	664.68927	-7.94684	593.61188	-23.24919	771.74255	-932.56519	
4422	44.210	-811.79016	34.36092	-646.24237	755.62061	31.53249	-621.80658	-744.26239	-3.13034	492.02267	663.80682	-8.23909	593.78900	-24.12313	772.22644	-932.06995	
4423	44.220	-812.49048	34.50737	-646.06958	754.74713	31.89440	-621.74927	-744.93024	-3.32084	492.05658	663.13977	-8.49365	593.77582	-5.94852	704.17096	-945.14447	
4424	44.230	-813.40143	34.90397	-645.86066	753.86810	32.23795	-621.74121	-745.84875	-3.45208	492.09326	662.10077	-8.84483	593.82953	-25.94651	773.72443	-931.05536	
4425	44.240	-814.30896	35.37070	-645.91382	752.95776	32.51938	-621.61224	-746.77350	-3.71853	492.10864	661.32489	-9.14177	593.89734	-26.21718	773.93433	-930.51758	
4426	44.250	-815.10583	35.65289	-645.97858	752.45288	33.16606	-621.29346	-747.38715	-3.95852	492.18051	660.57855	-9.43376	593.95233	-27.19132	774.57941	-929.94574	
4427	44.260	-815.94141	36.22915	-645.70898	751.66187	33.46827	-621.29926	-748.32990	-4.40558	492.25034	659.74213	-9.81453	594.02368	-27.99466	775.14734	-929.57422	
4428	44.270	-816.73645	36.87249	-645.50403	750.75232	34.00035	-621.14752	-749.19867	-4.65409	492.32675	658.76721	-10.14509	594.10938	-28.83933	775.47247	-929.25476	
4429	44.280	-817.41895	37.17459	-645.60535	750.05695	34.24503	-621.00439	-749.92053	-4.76747	492.43570	658.00488	-10.36444	594.10815	-29.86288	775.94122	-928.75824	
4430	44.290	-818.38184	37.42753	-645.51660	749.38934	34.40256	-620.93390	-750.66455	-4.94181	492.57834	657.33612	-10.55571	594.02948	-30.54390	776.44165	-928.41235	
4431	44.300	-819.09912	37.57368	-645.47601	748.46960	34.82273	-620.95343	-751.44031	-5.23052	492.60297	656.46777	-10.89914	594.04468	-31.25043	776.84473	-928.08643	
4432	44.310	-819.84674	37.89471	-645.38892	747.75995	35.13908	-620.83032	-752.13690	-5.52795	492.56519	655.75287	-11.17244	594.14026	-32.31808	777.36462	-927.58276	
4433	44.320	-820.23865	38.14522	-645.20044	747.04694	35.49846	-620.72833	-752.83728	-5.73792	492.75421	654.91321	-11.54551	594.23291	-32.88595	777.81854	-927.22406	
4434	44.330	-821.20087	38.75462	-645.14825	746.28424	35.92507	-620.60919	-753.68073	-5.90472	492.80930	654.34003	-11.68920	594.35101	-33.60063	778.59320	-926.67914	
4435	44.340	-821.97723	39.19845	-645.09601	745.70331	36.21909	-620.51917	-754.45972	-6.05434	492.94589	653.69843	-12.00108	594.35767	-34.38899	779.27368	-926.06128	
4436	44.350	-822.61432	39.30973	-644.95850	744.92316	36.63066	-620.49628	-755.01611	-6.27201	493.06198	652.96344	-12.39596	594.41687	-16.01786	712.57947	-939.42279	
4437	44.360	-823.41760	39.58201	-644.70392	744.22693	36.96382	-620.43561	-755.67389	-6.56907	493.05539	652.24445	-12.74719	594.60730	-21.36278	729.87903	-935.37988	
4438	44.370	-823.89490	39.75240	-644.67975	743.61725	37.21017	-620.27576	-756.37555	-6.91483	493.08810	651.63904	-12.95695	594.69080	-36.09182	780.30811	-924.53314	
4439	44.380	-824.59790	40.30118	-644.69556	743.04547	37.45149	-620.24927	-757.03778	-7.16557	493.17667	651.14124	-13.20877	594.75085	-36.78162	780.92651	-924.06299	
4440	44.390	-825.24481	40.67451	-644.74463	742.39838	37.83468	-620.13470	-757.68787	-7.26114	493.21298	650.44922	-13.39502	594.70593	-37.47806	781.39264	-923.48407	
4441	44.400	-825.95941	41.02346	-644.69458	741.74841	38.20471	-620.07495	-758.14789	-7.40376	493.24350	649.74786	-13.58926	594.82117	-38.07026	781.73230	-923.08575	
4442	44.410	-826.45483	41.18470	-644.62189	741.11993	38.39636	-619.95221	-758.84180	-7.64743	493.30270	649.10089	-13.91810	594.88544	-38.60666	781.97351	-922.67017	
4443	44.420	-826.98120	41.46164	-644.48181	740.63464	38.52619	-619.91254	-759.48645	-7.85219	493.34607	648.57538	-14.09966	594.89948	-39.18225	782.31531	-922.22931	
4444	44.430	-827.47034	41.66991	-644.32294	740.04578	38.86090	-619.82745	-759.86847	-7.96012	493.43433	648.18567	-13.67376	596.00354	-39.72786	782.72443	-921.86206	
4445	44.440	-828.12836	42.04314	-644.15649	739.54779	39.17347	-619.80103	-760.40369	-8.07116	493.56104	647.61279	-13.99836	595.83960	-40.16693	783.17487	-921.64929	
4446	44.450	-828.72784	42.39182	-644.26990	738.99005	39.43336	-619.69647	-761.06628	-8.31473	493.59683	647.11694	-14.23233	595.89557	-40.58772	783.46582	-921.57941	
4447	44.460	-829.24139	42.56670	-644.28436	738.48303	39.67047	-619.61359	-761.71222	-8.46986	493.60587	646.39581	-14.69856	595.89087	-41.45317	783.90234	-921.26947	
4448	44.470	-829.68054	42.72966	-644.17639	738.09650	39.84566	-619.55518	-762.00568	-8.60793	493.70486	645.98370	-14.91498	595.87952	-41.85881	784.15686	-920.99774	
